<svg xmlns="http://www.w3.org/2000/svg" viewBox="0 0 1120 520" role="img" aria-labelledby="title desc">
  <title id="title">p2pstream architecture</title>
  <desc id="desc">Public clients reach HTTP and HTTPS listeners on the p2pstream server. Requests pass through WAF and traffic policy checks, then route to direct upstreams, static responses, or remote agents connected over the management WebSocket.</desc>
  <defs>
    <style>
      .bg { fill: #0d1117; }
      .panel { fill: #111820; stroke: #2f3a46; stroke-width: 2; }
      .box { fill: #151d26; stroke: #3b4654; stroke-width: 2; }
      .accent { fill: #0f766e; stroke: #2dd4bf; stroke-width: 2; }
      .muted { fill: #202a35; stroke: #3b4654; stroke-width: 2; }
      .text { fill: #f4f2ec; font: 700 20px ui-sans-serif, system-ui, sans-serif; }
      .small { fill: #c2c7cc; font: 500 14px ui-sans-serif, system-ui, sans-serif; }
      .mono { fill: #d6fffa; font: 600 13px ui-monospace, SFMono-Regular, Consolas, monospace; }
      .line { fill: none; stroke: #2dd4bf; stroke-width: 3; stroke-linecap: round; stroke-linejoin: round; }
      .line2 { fill: none; stroke: #94a3b8; stroke-width: 3; stroke-linecap: round; stroke-linejoin: round; stroke-dasharray: 8 8; }
    </style>
    <marker id="arrow" viewBox="0 0 10 10" refX="8" refY="5" markerWidth="7" markerHeight="7" orient="auto-start-reverse">
      <path d="M 0 0 L 10 5 L 0 10 z" fill="#2dd4bf"/>
    </marker>
    <marker id="arrow2" viewBox="0 0 10 10" refX="8" refY="5" markerWidth="7" markerHeight="7" orient="auto-start-reverse">
      <path d="M 0 0 L 10 5 L 0 10 z" fill="#94a3b8"/>
    </marker>
  </defs>
  <rect class="bg" width="1120" height="520" rx="18"/>
  <rect class="panel" x="30" y="46" width="230" height="410" rx="12"/>
  <text class="text" x="60" y="96">Public clients</text>
  <rect class="box" x="60" y="136" width="170" height="62" rx="8"/>
  <text class="small" x="84" y="163">Browsers</text>
  <text class="mono" x="84" y="183">HTTP / HTTPS</text>
  <rect class="box" x="60" y="226" width="170" height="62" rx="8"/>
  <text class="small" x="84" y="253">API clients</text>
  <text class="mono" x="84" y="273">Ports 80 / 443</text>
  <rect class="box" x="60" y="316" width="170" height="62" rx="8"/>
  <text class="small" x="84" y="343">ACME validators</text>
  <text class="mono" x="84" y="363">HTTP-01 / ALPN</text>

  <rect class="panel" x="360" y="46" width="400" height="410" rx="12"/>
  <text class="text" x="390" y="96">p2pstream server</text>
  <rect class="accent" x="390" y="122" width="310" height="54" rx="8"/>
  <text class="small" x="414" y="144">Public listeners</text>
  <text class="mono" x="414" y="163">HTTP, HTTPS, SNI, ACME</text>
  <rect class="box" x="390" y="194" width="310" height="58" rx="8"/>
  <text class="small" x="414" y="218">WAF + policy</text>
  <text class="mono" x="414" y="237">captcha, queue, limits, shapers</text>
  <rect class="box" x="390" y="270" width="310" height="58" rx="8"/>
  <text class="small" x="414" y="294">Routing engine</text>
  <text class="mono" x="414" y="313">host, path, priority, redirects</text>
  <rect class="box" x="390" y="362" width="146" height="58" rx="8"/>
  <text class="small" x="414" y="386">Management</text>
  <text class="mono" x="414" y="405">UI + API :8081</text>
  <rect class="box" x="554" y="362" width="146" height="58" rx="8"/>
  <text class="small" x="578" y="386">SQLite</text>
  <text class="mono" x="578" y="405">/data/*.db</text>

  <rect class="panel" x="860" y="46" width="230" height="410" rx="12"/>
  <text class="text" x="890" y="96">Destinations</text>
  <rect class="box" x="890" y="136" width="170" height="62" rx="8"/>
  <text class="small" x="914" y="163">Direct backend</text>
  <text class="mono" x="914" y="183">server -> upstream</text>
  <rect class="box" x="890" y="226" width="170" height="62" rx="8"/>
  <text class="small" x="914" y="253">Static backend</text>
  <text class="mono" x="914" y="273">status + body</text>
  <rect class="muted" x="890" y="316" width="170" height="62" rx="8"/>
  <text class="small" x="914" y="343">Remote agent</text>
  <text class="mono" x="914" y="363">WSS tunnel</text>

  <path class="line" d="M 230 167 C 290 167, 320 149, 390 149" marker-end="url(#arrow)"/>
  <path class="line" d="M 700 299 C 775 299, 815 167, 890 167" marker-end="url(#arrow)"/>
  <path class="line" d="M 700 299 C 770 299, 812 257, 890 257" marker-end="url(#arrow)"/>
  <path class="line2" d="M 700 299 C 770 299, 812 347, 890 347" marker-end="url(#arrow2)"/>
  <path class="line2" d="M 463 362 C 463 340, 480 330, 510 328" marker-end="url(#arrow2)"/>
  <path class="line2" d="M 627 362 C 627 340, 610 330, 580 328" marker-end="url(#arrow2)"/>
</svg>
